<mxfile host="app.diagrams.net" agent="Mozilla/5.0 (Windows NT 10.0; Win64; x64) AppleWebKit/537.36 (KHTML, like Gecko) Chrome/140.0.0.0 Safari/537.36 Edg/140.0.0.0" version="28.2.5">
  <diagram name="Page-1" id="7QEcgkJo7Aka3FAdxSXT">
    <mxGraphModel dx="4630" dy="4170" grid="1" gridSize="10" guides="1" tooltips="1" connect="1" arrows="1" fold="1" page="1" pageScale="1" pageWidth="850" pageHeight="1100" math="0" shadow="0">
      <root>
        <mxCell id="0" />
        <mxCell id="1" parent="0" />
        <mxCell id="S0svGZNATThutrTlRbCU-4" value="" style="edgeStyle=orthogonalEdgeStyle;rounded=0;orthogonalLoop=1;jettySize=auto;html=1;" parent="1" target="S0svGZNATThutrTlRbCU-3" edge="1">
          <mxGeometry relative="1" as="geometry">
            <mxPoint x="390" y="-1850" as="sourcePoint" />
          </mxGeometry>
        </mxCell>
        <mxCell id="S0svGZNATThutrTlRbCU-11" style="edgeStyle=orthogonalEdgeStyle;rounded=0;orthogonalLoop=1;jettySize=auto;html=1;exitX=0.5;exitY=1;exitDx=0;exitDy=0;" parent="1" source="S0svGZNATThutrTlRbCU-3" target="S0svGZNATThutrTlRbCU-10" edge="1">
          <mxGeometry relative="1" as="geometry">
            <mxPoint x="380" y="-1710" as="targetPoint" />
          </mxGeometry>
        </mxCell>
        <mxCell id="S0svGZNATThutrTlRbCU-3" value="User/Admin opens Website(Home)" style="rounded=1;whiteSpace=wrap;html=1;" parent="1" vertex="1">
          <mxGeometry x="310" y="-1800" width="160" height="40" as="geometry" />
        </mxCell>
        <mxCell id="S0svGZNATThutrTlRbCU-12" style="edgeStyle=orthogonalEdgeStyle;rounded=0;orthogonalLoop=1;jettySize=auto;html=1;entryX=0.5;entryY=0;entryDx=0;entryDy=0;exitX=0.196;exitY=0.525;exitDx=0;exitDy=0;exitPerimeter=0;" parent="1" source="S0svGZNATThutrTlRbCU-10" target="S0svGZNATThutrTlRbCU-5" edge="1">
          <mxGeometry relative="1" as="geometry">
            <mxPoint x="110" y="-1650" as="targetPoint" />
            <mxPoint x="270" y="-1630" as="sourcePoint" />
          </mxGeometry>
        </mxCell>
        <mxCell id="S0svGZNATThutrTlRbCU-14" style="edgeStyle=orthogonalEdgeStyle;rounded=0;orthogonalLoop=1;jettySize=auto;html=1;exitX=0.5;exitY=1;exitDx=0;exitDy=0;" parent="1" source="S0svGZNATThutrTlRbCU-5" target="S0svGZNATThutrTlRbCU-13" edge="1">
          <mxGeometry relative="1" as="geometry" />
        </mxCell>
        <mxCell id="S0svGZNATThutrTlRbCU-5" value="Request Trending Games From ragw api" style="rounded=1;whiteSpace=wrap;html=1;" parent="1" vertex="1">
          <mxGeometry x="50" y="-1590" width="120" height="60" as="geometry" />
        </mxCell>
        <mxCell id="S0svGZNATThutrTlRbCU-7" value="" style="shape=ellipse;html=1;fillColor=strokeColor;strokeWidth=2;verticalLabelPosition=bottom;verticalAlignment=top;perimeter=ellipsePerimeter;" parent="1" vertex="1">
          <mxGeometry x="370" y="-1880" width="40" height="40" as="geometry" />
        </mxCell>
        <mxCell id="S0svGZNATThutrTlRbCU-10" value="" style="line;strokeWidth=4;html=1;perimeter=backbonePerimeter;points=[];outlineConnect=0;" parent="1" vertex="1">
          <mxGeometry x="-20" y="-1680" width="820" height="10" as="geometry" />
        </mxCell>
        <mxCell id="S0svGZNATThutrTlRbCU-15" style="edgeStyle=orthogonalEdgeStyle;rounded=0;orthogonalLoop=1;jettySize=auto;html=1;exitX=0;exitY=0.5;exitDx=0;exitDy=0;" parent="1" source="S0svGZNATThutrTlRbCU-13" edge="1">
          <mxGeometry relative="1" as="geometry">
            <mxPoint y="-1400" as="targetPoint" />
          </mxGeometry>
        </mxCell>
        <mxCell id="S0svGZNATThutrTlRbCU-16" style="edgeStyle=orthogonalEdgeStyle;rounded=0;orthogonalLoop=1;jettySize=auto;html=1;exitX=1;exitY=0.5;exitDx=0;exitDy=0;" parent="1" source="S0svGZNATThutrTlRbCU-13" edge="1">
          <mxGeometry relative="1" as="geometry">
            <mxPoint x="240" y="-1400" as="targetPoint" />
          </mxGeometry>
        </mxCell>
        <mxCell id="S0svGZNATThutrTlRbCU-13" value="Api request Successful?" style="shape=hexagon;perimeter=hexagonPerimeter2;whiteSpace=wrap;html=1;fixedSize=1;" parent="1" vertex="1">
          <mxGeometry x="60" y="-1480" width="120" height="50" as="geometry" />
        </mxCell>
        <mxCell id="S0svGZNATThutrTlRbCU-17" value="yes" style="text;html=1;align=center;verticalAlign=middle;resizable=0;points=[];autosize=1;strokeColor=none;fillColor=none;" parent="1" vertex="1">
          <mxGeometry x="10" y="-1490" width="40" height="30" as="geometry" />
        </mxCell>
        <mxCell id="S0svGZNATThutrTlRbCU-18" value="no" style="text;html=1;align=center;verticalAlign=middle;resizable=0;points=[];autosize=1;strokeColor=none;fillColor=none;" parent="1" vertex="1">
          <mxGeometry x="180" y="-1480" width="40" height="30" as="geometry" />
        </mxCell>
        <mxCell id="S0svGZNATThutrTlRbCU-21" style="edgeStyle=orthogonalEdgeStyle;rounded=0;orthogonalLoop=1;jettySize=auto;html=1;exitX=0.5;exitY=1;exitDx=0;exitDy=0;entryX=0.5;entryY=0;entryDx=0;entryDy=0;" parent="1" source="S0svGZNATThutrTlRbCU-19" target="S0svGZNATThutrTlRbCU-20" edge="1">
          <mxGeometry relative="1" as="geometry" />
        </mxCell>
        <mxCell id="S0svGZNATThutrTlRbCU-19" value="Parse Ragw api Response" style="rounded=1;whiteSpace=wrap;html=1;" parent="1" vertex="1">
          <mxGeometry x="-60" y="-1400" width="150" height="60" as="geometry" />
        </mxCell>
        <mxCell id="S0svGZNATThutrTlRbCU-24" style="edgeStyle=orthogonalEdgeStyle;rounded=0;orthogonalLoop=1;jettySize=auto;html=1;exitX=0.5;exitY=1;exitDx=0;exitDy=0;entryX=0;entryY=0.5;entryDx=0;entryDy=0;" parent="1" source="S0svGZNATThutrTlRbCU-20" target="S0svGZNATThutrTlRbCU-23" edge="1">
          <mxGeometry relative="1" as="geometry" />
        </mxCell>
        <mxCell id="S0svGZNATThutrTlRbCU-20" value="Display Trending Games" style="rounded=1;whiteSpace=wrap;html=1;" parent="1" vertex="1">
          <mxGeometry x="-60" y="-1310" width="140" height="60" as="geometry" />
        </mxCell>
        <mxCell id="S0svGZNATThutrTlRbCU-25" style="edgeStyle=orthogonalEdgeStyle;rounded=0;orthogonalLoop=1;jettySize=auto;html=1;exitX=0.5;exitY=1;exitDx=0;exitDy=0;entryX=1;entryY=0.5;entryDx=0;entryDy=0;" parent="1" source="S0svGZNATThutrTlRbCU-22" target="S0svGZNATThutrTlRbCU-23" edge="1">
          <mxGeometry relative="1" as="geometry" />
        </mxCell>
        <mxCell id="S0svGZNATThutrTlRbCU-22" value="Show Failed to load trending games" style="rounded=1;whiteSpace=wrap;html=1;" parent="1" vertex="1">
          <mxGeometry x="180" y="-1400" width="120" height="60" as="geometry" />
        </mxCell>
        <mxCell id="S0svGZNATThutrTlRbCU-40" style="edgeStyle=orthogonalEdgeStyle;rounded=0;orthogonalLoop=1;jettySize=auto;html=1;exitX=0.5;exitY=1;exitDx=0;exitDy=0;entryX=0.179;entryY=0.525;entryDx=0;entryDy=0;entryPerimeter=0;" parent="1" source="S0svGZNATThutrTlRbCU-23" target="S0svGZNATThutrTlRbCU-39" edge="1">
          <mxGeometry relative="1" as="geometry" />
        </mxCell>
        <mxCell id="S0svGZNATThutrTlRbCU-23" value="" style="rhombus;whiteSpace=wrap;html=1;" parent="1" vertex="1">
          <mxGeometry x="110" y="-1220" width="50" height="50" as="geometry" />
        </mxCell>
        <mxCell id="S0svGZNATThutrTlRbCU-27" style="edgeStyle=orthogonalEdgeStyle;rounded=0;orthogonalLoop=1;jettySize=auto;html=1;exitX=0.8;exitY=1.025;exitDx=0;exitDy=0;exitPerimeter=0;entryX=0.372;entryY=-0.046;entryDx=0;entryDy=0;entryPerimeter=0;" parent="1" source="S0svGZNATThutrTlRbCU-10" target="S0svGZNATThutrTlRbCU-26" edge="1">
          <mxGeometry relative="1" as="geometry">
            <mxPoint x="460" y="-1530" as="targetPoint" />
          </mxGeometry>
        </mxCell>
        <mxCell id="S0svGZNATThutrTlRbCU-28" style="edgeStyle=orthogonalEdgeStyle;rounded=0;orthogonalLoop=1;jettySize=auto;html=1;exitX=0.5;exitY=1;exitDx=0;exitDy=0;" parent="1" source="S0svGZNATThutrTlRbCU-26" edge="1">
          <mxGeometry relative="1" as="geometry">
            <mxPoint x="660" y="-1480" as="targetPoint" />
          </mxGeometry>
        </mxCell>
        <mxCell id="S0svGZNATThutrTlRbCU-26" value="Query Suggested Games from Mongo Db" style="rounded=1;whiteSpace=wrap;html=1;" parent="1" vertex="1">
          <mxGeometry x="570" y="-1600" width="180" height="60" as="geometry" />
        </mxCell>
        <mxCell id="S0svGZNATThutrTlRbCU-30" style="edgeStyle=orthogonalEdgeStyle;rounded=0;orthogonalLoop=1;jettySize=auto;html=1;exitX=0;exitY=0.5;exitDx=0;exitDy=0;" parent="1" source="S0svGZNATThutrTlRbCU-29" edge="1">
          <mxGeometry relative="1" as="geometry">
            <mxPoint x="520" y="-1400" as="targetPoint" />
          </mxGeometry>
        </mxCell>
        <mxCell id="S0svGZNATThutrTlRbCU-31" style="edgeStyle=orthogonalEdgeStyle;rounded=0;orthogonalLoop=1;jettySize=auto;html=1;exitX=1;exitY=0.5;exitDx=0;exitDy=0;" parent="1" source="S0svGZNATThutrTlRbCU-29" edge="1">
          <mxGeometry relative="1" as="geometry">
            <mxPoint x="760" y="-1400" as="targetPoint" />
          </mxGeometry>
        </mxCell>
        <mxCell id="S0svGZNATThutrTlRbCU-29" value="GamesFound?" style="shape=hexagon;perimeter=hexagonPerimeter2;whiteSpace=wrap;html=1;fixedSize=1;" parent="1" vertex="1">
          <mxGeometry x="600" y="-1480" width="120" height="30" as="geometry" />
        </mxCell>
        <mxCell id="S0svGZNATThutrTlRbCU-32" value="yes" style="text;html=1;align=center;verticalAlign=middle;resizable=0;points=[];autosize=1;strokeColor=none;fillColor=none;" parent="1" vertex="1">
          <mxGeometry x="540" y="-1490" width="40" height="30" as="geometry" />
        </mxCell>
        <mxCell id="S0svGZNATThutrTlRbCU-33" value="no" style="text;html=1;align=center;verticalAlign=middle;resizable=0;points=[];autosize=1;strokeColor=none;fillColor=none;" parent="1" vertex="1">
          <mxGeometry x="720" y="-1490" width="40" height="30" as="geometry" />
        </mxCell>
        <mxCell id="S0svGZNATThutrTlRbCU-37" style="edgeStyle=orthogonalEdgeStyle;rounded=0;orthogonalLoop=1;jettySize=auto;html=1;exitX=0.5;exitY=1;exitDx=0;exitDy=0;entryX=0;entryY=0.5;entryDx=0;entryDy=0;" parent="1" source="S0svGZNATThutrTlRbCU-34" target="S0svGZNATThutrTlRbCU-36" edge="1">
          <mxGeometry relative="1" as="geometry" />
        </mxCell>
        <mxCell id="S0svGZNATThutrTlRbCU-34" value="Display Suggested games" style="rounded=1;whiteSpace=wrap;html=1;" parent="1" vertex="1">
          <mxGeometry x="440" y="-1400" width="170" height="50" as="geometry" />
        </mxCell>
        <mxCell id="S0svGZNATThutrTlRbCU-38" style="edgeStyle=orthogonalEdgeStyle;rounded=0;orthogonalLoop=1;jettySize=auto;html=1;exitX=0.5;exitY=1;exitDx=0;exitDy=0;entryX=1;entryY=0.5;entryDx=0;entryDy=0;" parent="1" source="S0svGZNATThutrTlRbCU-35" target="S0svGZNATThutrTlRbCU-36" edge="1">
          <mxGeometry relative="1" as="geometry" />
        </mxCell>
        <mxCell id="S0svGZNATThutrTlRbCU-35" value="Show &quot;No Games Found&quot; Message" style="rounded=1;whiteSpace=wrap;html=1;" parent="1" vertex="1">
          <mxGeometry x="700" y="-1405" width="120" height="45" as="geometry" />
        </mxCell>
        <mxCell id="S0svGZNATThutrTlRbCU-41" style="edgeStyle=orthogonalEdgeStyle;rounded=0;orthogonalLoop=1;jettySize=auto;html=1;exitX=0.5;exitY=1;exitDx=0;exitDy=0;entryX=0.592;entryY=0.125;entryDx=0;entryDy=0;entryPerimeter=0;" parent="1" source="S0svGZNATThutrTlRbCU-36" target="S0svGZNATThutrTlRbCU-39" edge="1">
          <mxGeometry relative="1" as="geometry" />
        </mxCell>
        <mxCell id="S0svGZNATThutrTlRbCU-36" value="" style="rhombus;whiteSpace=wrap;html=1;" parent="1" vertex="1">
          <mxGeometry x="610" y="-1310" width="50" height="50" as="geometry" />
        </mxCell>
        <mxCell id="S0svGZNATThutrTlRbCU-39" value="" style="line;strokeWidth=4;html=1;perimeter=backbonePerimeter;points=[];outlineConnect=0;" parent="1" vertex="1">
          <mxGeometry x="-80" y="-1080" width="1210" height="10" as="geometry" />
        </mxCell>
        <mxCell id="Iw-3hsuqcNe2yLvdcIk--4" value="" style="line;strokeWidth=4;html=1;perimeter=backbonePerimeter;points=[];outlineConnect=0;" parent="1" vertex="1">
          <mxGeometry x="-329" y="-1020" width="1584" height="10" as="geometry" />
        </mxCell>
        <mxCell id="Iw-3hsuqcNe2yLvdcIk--5" value="" style="edgeStyle=none;orthogonalLoop=1;jettySize=auto;html=1;rounded=0;" parent="1" source="S0svGZNATThutrTlRbCU-39" target="Iw-3hsuqcNe2yLvdcIk--4" edge="1">
          <mxGeometry width="100" relative="1" as="geometry">
            <mxPoint x="670" y="-830" as="sourcePoint" />
            <mxPoint x="770" y="-830" as="targetPoint" />
            <Array as="points" />
          </mxGeometry>
        </mxCell>
        <mxCell id="Iw-3hsuqcNe2yLvdcIk--8" style="edgeStyle=orthogonalEdgeStyle;rounded=0;orthogonalLoop=1;jettySize=auto;html=1;exitX=0.5;exitY=1;exitDx=0;exitDy=0;entryX=0.5;entryY=0;entryDx=0;entryDy=0;" parent="1" source="Iw-3hsuqcNe2yLvdcIk--6" target="Iw-3hsuqcNe2yLvdcIk--7" edge="1">
          <mxGeometry relative="1" as="geometry" />
        </mxCell>
        <mxCell id="Iw-3hsuqcNe2yLvdcIk--6" value="User/Admin Clicks About?" style="rounded=1;whiteSpace=wrap;html=1;" parent="1" vertex="1">
          <mxGeometry x="-295" y="-920" width="120" height="60" as="geometry" />
        </mxCell>
        <mxCell id="Iw-3hsuqcNe2yLvdcIk--78" style="edgeStyle=orthogonalEdgeStyle;rounded=0;orthogonalLoop=1;jettySize=auto;html=1;exitX=0.5;exitY=1;exitDx=0;exitDy=0;entryX=0.086;entryY=0.357;entryDx=0;entryDy=0;entryPerimeter=0;" parent="1" source="Iw-3hsuqcNe2yLvdcIk--7" target="Iw-3hsuqcNe2yLvdcIk--77" edge="1">
          <mxGeometry relative="1" as="geometry" />
        </mxCell>
        <mxCell id="Iw-3hsuqcNe2yLvdcIk--7" value="Views details regarding the website" style="rounded=1;whiteSpace=wrap;html=1;" parent="1" vertex="1">
          <mxGeometry x="-295" y="-800" width="120" height="60" as="geometry" />
        </mxCell>
        <mxCell id="Iw-3hsuqcNe2yLvdcIk--9" value="" style="edgeStyle=none;orthogonalLoop=1;jettySize=auto;html=1;rounded=0;entryX=0.5;entryY=0;entryDx=0;entryDy=0;" parent="1" source="Iw-3hsuqcNe2yLvdcIk--4" target="Iw-3hsuqcNe2yLvdcIk--6" edge="1">
          <mxGeometry width="100" relative="1" as="geometry">
            <mxPoint x="-95" y="-910" as="sourcePoint" />
            <mxPoint x="5" y="-910" as="targetPoint" />
            <Array as="points" />
          </mxGeometry>
        </mxCell>
        <mxCell id="Iw-3hsuqcNe2yLvdcIk--12" style="edgeStyle=orthogonalEdgeStyle;rounded=0;orthogonalLoop=1;jettySize=auto;html=1;exitX=0.5;exitY=1;exitDx=0;exitDy=0;entryX=0.5;entryY=0;entryDx=0;entryDy=0;" parent="1" source="Iw-3hsuqcNe2yLvdcIk--10" target="Iw-3hsuqcNe2yLvdcIk--11" edge="1">
          <mxGeometry relative="1" as="geometry" />
        </mxCell>
        <mxCell id="Iw-3hsuqcNe2yLvdcIk--30" style="edgeStyle=orthogonalEdgeStyle;rounded=0;orthogonalLoop=1;jettySize=auto;html=1;exitX=1;exitY=0.5;exitDx=0;exitDy=0;entryX=1;entryY=0.5;entryDx=0;entryDy=0;" parent="1" source="Iw-3hsuqcNe2yLvdcIk--10" target="Iw-3hsuqcNe2yLvdcIk--31" edge="1">
          <mxGeometry relative="1" as="geometry">
            <mxPoint x="215" y="-400" as="targetPoint" />
            <Array as="points">
              <mxPoint x="215" y="-940" />
              <mxPoint x="215" y="-420" />
            </Array>
          </mxGeometry>
        </mxCell>
        <mxCell id="Iw-3hsuqcNe2yLvdcIk--10" value="User/Admin Clicks game card" style="shape=hexagon;perimeter=hexagonPerimeter2;whiteSpace=wrap;html=1;fixedSize=1;" parent="1" vertex="1">
          <mxGeometry x="-75" y="-960" width="170" height="40" as="geometry" />
        </mxCell>
        <mxCell id="Iw-3hsuqcNe2yLvdcIk--11" value="Open Big card component" style="rounded=1;whiteSpace=wrap;html=1;" parent="1" vertex="1">
          <mxGeometry x="-50" y="-880" width="120" height="40" as="geometry" />
        </mxCell>
        <mxCell id="Iw-3hsuqcNe2yLvdcIk--15" style="edgeStyle=orthogonalEdgeStyle;rounded=0;orthogonalLoop=1;jettySize=auto;html=1;exitX=0.5;exitY=1;exitDx=0;exitDy=0;entryX=0.5;entryY=0;entryDx=0;entryDy=0;" parent="1" source="Iw-3hsuqcNe2yLvdcIk--13" target="Iw-3hsuqcNe2yLvdcIk--14" edge="1">
          <mxGeometry relative="1" as="geometry" />
        </mxCell>
        <mxCell id="Iw-3hsuqcNe2yLvdcIk--13" value="show more information about the game+ revies section" style="rounded=1;whiteSpace=wrap;html=1;" parent="1" vertex="1">
          <mxGeometry x="-75" y="-790" width="195" height="40" as="geometry" />
        </mxCell>
        <mxCell id="Iw-3hsuqcNe2yLvdcIk--17" style="edgeStyle=orthogonalEdgeStyle;rounded=0;orthogonalLoop=1;jettySize=auto;html=1;exitX=0;exitY=0.5;exitDx=0;exitDy=0;" parent="1" source="Iw-3hsuqcNe2yLvdcIk--14" edge="1">
          <mxGeometry relative="1" as="geometry">
            <mxPoint x="-75" y="-660" as="targetPoint" />
          </mxGeometry>
        </mxCell>
        <mxCell id="Iw-3hsuqcNe2yLvdcIk--18" style="edgeStyle=orthogonalEdgeStyle;rounded=0;orthogonalLoop=1;jettySize=auto;html=1;exitX=1;exitY=0.5;exitDx=0;exitDy=0;" parent="1" source="Iw-3hsuqcNe2yLvdcIk--14" edge="1">
          <mxGeometry relative="1" as="geometry">
            <mxPoint x="125" y="-660" as="targetPoint" />
          </mxGeometry>
        </mxCell>
        <mxCell id="Iw-3hsuqcNe2yLvdcIk--14" value="User Logged in ?" style="shape=hexagon;perimeter=hexagonPerimeter2;whiteSpace=wrap;html=1;fixedSize=1;" parent="1" vertex="1">
          <mxGeometry x="-25" y="-720" width="120" height="30" as="geometry" />
        </mxCell>
        <mxCell id="Iw-3hsuqcNe2yLvdcIk--16" style="edgeStyle=orthogonalEdgeStyle;rounded=0;orthogonalLoop=1;jettySize=auto;html=1;exitX=0.5;exitY=1;exitDx=0;exitDy=0;entryX=0.427;entryY=-0.025;entryDx=0;entryDy=0;entryPerimeter=0;" parent="1" source="Iw-3hsuqcNe2yLvdcIk--11" target="Iw-3hsuqcNe2yLvdcIk--13" edge="1">
          <mxGeometry relative="1" as="geometry">
            <Array as="points">
              <mxPoint x="10" y="-815" />
              <mxPoint x="8" y="-815" />
            </Array>
          </mxGeometry>
        </mxCell>
        <mxCell id="Iw-3hsuqcNe2yLvdcIk--24" style="edgeStyle=orthogonalEdgeStyle;rounded=0;orthogonalLoop=1;jettySize=auto;html=1;exitX=0.5;exitY=1;exitDx=0;exitDy=0;" parent="1" source="Iw-3hsuqcNe2yLvdcIk--19" target="Iw-3hsuqcNe2yLvdcIk--23" edge="1">
          <mxGeometry relative="1" as="geometry" />
        </mxCell>
        <mxCell id="Iw-3hsuqcNe2yLvdcIk--19" value="User/admin submits reviews + rating" style="rounded=1;whiteSpace=wrap;html=1;" parent="1" vertex="1">
          <mxGeometry x="-145" y="-660" width="120" height="50" as="geometry" />
        </mxCell>
        <mxCell id="Iw-3hsuqcNe2yLvdcIk--22" style="edgeStyle=orthogonalEdgeStyle;rounded=0;orthogonalLoop=1;jettySize=auto;html=1;exitX=0.5;exitY=1;exitDx=0;exitDy=0;" parent="1" source="Iw-3hsuqcNe2yLvdcIk--20" target="Iw-3hsuqcNe2yLvdcIk--21" edge="1">
          <mxGeometry relative="1" as="geometry" />
        </mxCell>
        <mxCell id="Iw-3hsuqcNe2yLvdcIk--20" value="Can only read reviews" style="rounded=1;whiteSpace=wrap;html=1;" parent="1" vertex="1">
          <mxGeometry x="65" y="-660" width="120" height="50" as="geometry" />
        </mxCell>
        <mxCell id="Iw-3hsuqcNe2yLvdcIk--28" style="edgeStyle=orthogonalEdgeStyle;rounded=0;orthogonalLoop=1;jettySize=auto;html=1;exitX=0.5;exitY=1;exitDx=0;exitDy=0;entryX=1;entryY=0.5;entryDx=0;entryDy=0;" parent="1" source="Iw-3hsuqcNe2yLvdcIk--21" target="Iw-3hsuqcNe2yLvdcIk--27" edge="1">
          <mxGeometry relative="1" as="geometry" />
        </mxCell>
        <mxCell id="Iw-3hsuqcNe2yLvdcIk--21" value="Shows &quot;&quot;Please login to submit a review&quot;&amp;nbsp;" style="rounded=1;whiteSpace=wrap;html=1;" parent="1" vertex="1">
          <mxGeometry x="65" y="-570" width="120" height="40" as="geometry" />
        </mxCell>
        <mxCell id="Iw-3hsuqcNe2yLvdcIk--29" style="edgeStyle=orthogonalEdgeStyle;rounded=0;orthogonalLoop=1;jettySize=auto;html=1;exitX=0.5;exitY=1;exitDx=0;exitDy=0;entryX=0;entryY=0.5;entryDx=0;entryDy=0;" parent="1" source="Iw-3hsuqcNe2yLvdcIk--23" target="Iw-3hsuqcNe2yLvdcIk--27" edge="1">
          <mxGeometry relative="1" as="geometry" />
        </mxCell>
        <mxCell id="Iw-3hsuqcNe2yLvdcIk--23" value="Save Review in MongoDb" style="rounded=1;whiteSpace=wrap;html=1;" parent="1" vertex="1">
          <mxGeometry x="-145" y="-570" width="120" height="40" as="geometry" />
        </mxCell>
        <mxCell id="Iw-3hsuqcNe2yLvdcIk--25" value="" style="edgeStyle=none;orthogonalLoop=1;jettySize=auto;html=1;rounded=0;entryX=0.5;entryY=0;entryDx=0;entryDy=0;" parent="1" source="Iw-3hsuqcNe2yLvdcIk--4" target="Iw-3hsuqcNe2yLvdcIk--10" edge="1">
          <mxGeometry width="100" relative="1" as="geometry">
            <mxPoint x="85" y="-940" as="sourcePoint" />
            <mxPoint x="185" y="-940" as="targetPoint" />
            <Array as="points" />
          </mxGeometry>
        </mxCell>
        <mxCell id="Iw-3hsuqcNe2yLvdcIk--26" value="yes" style="text;html=1;align=center;verticalAlign=middle;resizable=0;points=[];autosize=1;strokeColor=none;fillColor=none;" parent="1" vertex="1">
          <mxGeometry x="5" y="-910" width="40" height="30" as="geometry" />
        </mxCell>
        <mxCell id="Iw-3hsuqcNe2yLvdcIk--33" style="edgeStyle=orthogonalEdgeStyle;rounded=0;orthogonalLoop=1;jettySize=auto;html=1;exitX=0.5;exitY=1;exitDx=0;exitDy=0;entryX=0.5;entryY=0;entryDx=0;entryDy=0;" parent="1" source="Iw-3hsuqcNe2yLvdcIk--27" target="Iw-3hsuqcNe2yLvdcIk--31" edge="1">
          <mxGeometry relative="1" as="geometry" />
        </mxCell>
        <mxCell id="Iw-3hsuqcNe2yLvdcIk--27" value="" style="rhombus;whiteSpace=wrap;html=1;" parent="1" vertex="1">
          <mxGeometry x="-5" y="-500" width="40" height="40" as="geometry" />
        </mxCell>
        <mxCell id="Iw-3hsuqcNe2yLvdcIk--79" style="edgeStyle=orthogonalEdgeStyle;rounded=0;orthogonalLoop=1;jettySize=auto;html=1;exitX=0.5;exitY=1;exitDx=0;exitDy=0;" parent="1" source="Iw-3hsuqcNe2yLvdcIk--31" edge="1">
          <mxGeometry relative="1" as="geometry">
            <mxPoint x="15" y="-30" as="targetPoint" />
          </mxGeometry>
        </mxCell>
        <mxCell id="Iw-3hsuqcNe2yLvdcIk--31" value="" style="rhombus;whiteSpace=wrap;html=1;" parent="1" vertex="1">
          <mxGeometry x="-5" y="-440" width="40" height="40" as="geometry" />
        </mxCell>
        <mxCell id="Iw-3hsuqcNe2yLvdcIk--40" style="edgeStyle=orthogonalEdgeStyle;rounded=0;orthogonalLoop=1;jettySize=auto;html=1;exitX=0.5;exitY=1;exitDx=0;exitDy=0;entryX=0.5;entryY=0;entryDx=0;entryDy=0;" parent="1" source="Iw-3hsuqcNe2yLvdcIk--34" target="Iw-3hsuqcNe2yLvdcIk--38" edge="1">
          <mxGeometry relative="1" as="geometry" />
        </mxCell>
        <mxCell id="Iw-3hsuqcNe2yLvdcIk--34" value="User/Admin Clicks &quot;Your Suggestion&quot;" style="rounded=1;whiteSpace=wrap;html=1;" parent="1" vertex="1">
          <mxGeometry x="345" y="-860" width="120" height="40" as="geometry" />
        </mxCell>
        <mxCell id="Iw-3hsuqcNe2yLvdcIk--37" style="edgeStyle=orthogonalEdgeStyle;rounded=0;orthogonalLoop=1;jettySize=auto;html=1;exitX=0.5;exitY=1;exitDx=0;exitDy=0;" parent="1" source="Iw-3hsuqcNe2yLvdcIk--35" target="Iw-3hsuqcNe2yLvdcIk--34" edge="1">
          <mxGeometry relative="1" as="geometry" />
        </mxCell>
        <mxCell id="Iw-3hsuqcNe2yLvdcIk--46" style="edgeStyle=orthogonalEdgeStyle;rounded=0;orthogonalLoop=1;jettySize=auto;html=1;exitX=1;exitY=0.5;exitDx=0;exitDy=0;entryX=1;entryY=0.5;entryDx=0;entryDy=0;" parent="1" source="Iw-3hsuqcNe2yLvdcIk--35" target="Iw-3hsuqcNe2yLvdcIk--44" edge="1">
          <mxGeometry relative="1" as="geometry" />
        </mxCell>
        <mxCell id="Iw-3hsuqcNe2yLvdcIk--35" value="If Logged In?" style="shape=hexagon;perimeter=hexagonPerimeter2;whiteSpace=wrap;html=1;fixedSize=1;" parent="1" vertex="1">
          <mxGeometry x="345" y="-970" width="120" height="40" as="geometry" />
        </mxCell>
        <mxCell id="Iw-3hsuqcNe2yLvdcIk--41" style="edgeStyle=orthogonalEdgeStyle;rounded=0;orthogonalLoop=1;jettySize=auto;html=1;exitX=0.5;exitY=1;exitDx=0;exitDy=0;" parent="1" source="Iw-3hsuqcNe2yLvdcIk--38" target="Iw-3hsuqcNe2yLvdcIk--39" edge="1">
          <mxGeometry relative="1" as="geometry" />
        </mxCell>
        <mxCell id="Iw-3hsuqcNe2yLvdcIk--38" value="Fetch games suggested by User/admin" style="rounded=1;whiteSpace=wrap;html=1;" parent="1" vertex="1">
          <mxGeometry x="345" y="-790" width="120" height="50" as="geometry" />
        </mxCell>
        <mxCell id="Iw-3hsuqcNe2yLvdcIk--45" style="edgeStyle=orthogonalEdgeStyle;rounded=0;orthogonalLoop=1;jettySize=auto;html=1;exitX=0.5;exitY=1;exitDx=0;exitDy=0;entryX=0.5;entryY=0;entryDx=0;entryDy=0;" parent="1" source="Iw-3hsuqcNe2yLvdcIk--39" target="Iw-3hsuqcNe2yLvdcIk--44" edge="1">
          <mxGeometry relative="1" as="geometry" />
        </mxCell>
        <mxCell id="Iw-3hsuqcNe2yLvdcIk--39" value="Show list of suggested Games" style="rounded=1;whiteSpace=wrap;html=1;" parent="1" vertex="1">
          <mxGeometry x="345" y="-710" width="120" height="40" as="geometry" />
        </mxCell>
        <mxCell id="Iw-3hsuqcNe2yLvdcIk--42" value="" style="edgeStyle=none;orthogonalLoop=1;jettySize=auto;html=1;rounded=0;entryX=0.625;entryY=0;entryDx=0;entryDy=0;" parent="1" source="Iw-3hsuqcNe2yLvdcIk--4" target="Iw-3hsuqcNe2yLvdcIk--35" edge="1">
          <mxGeometry width="100" relative="1" as="geometry">
            <mxPoint x="355" y="-990" as="sourcePoint" />
            <mxPoint x="455" y="-990" as="targetPoint" />
            <Array as="points" />
          </mxGeometry>
        </mxCell>
        <mxCell id="Iw-3hsuqcNe2yLvdcIk--43" value="yes" style="text;html=1;align=center;verticalAlign=middle;resizable=0;points=[];autosize=1;strokeColor=none;fillColor=none;" parent="1" vertex="1">
          <mxGeometry x="355" y="-920" width="40" height="30" as="geometry" />
        </mxCell>
        <mxCell id="Iw-3hsuqcNe2yLvdcIk--47" style="edgeStyle=orthogonalEdgeStyle;rounded=0;orthogonalLoop=1;jettySize=auto;html=1;exitX=0.5;exitY=1;exitDx=0;exitDy=0;entryX=0.52;entryY=0.243;entryDx=0;entryDy=0;entryPerimeter=0;" parent="1" source="Iw-3hsuqcNe2yLvdcIk--44" target="Iw-3hsuqcNe2yLvdcIk--77" edge="1">
          <mxGeometry relative="1" as="geometry">
            <mxPoint x="405.3333333333335" y="-400" as="targetPoint" />
          </mxGeometry>
        </mxCell>
        <mxCell id="Iw-3hsuqcNe2yLvdcIk--44" value="" style="rhombus;whiteSpace=wrap;html=1;" parent="1" vertex="1">
          <mxGeometry x="380" y="-630" width="50" height="50" as="geometry" />
        </mxCell>
        <mxCell id="Iw-3hsuqcNe2yLvdcIk--53" style="edgeStyle=orthogonalEdgeStyle;rounded=0;orthogonalLoop=1;jettySize=auto;html=1;exitX=0;exitY=0.5;exitDx=0;exitDy=0;" parent="1" source="Iw-3hsuqcNe2yLvdcIk--48" edge="1">
          <mxGeometry relative="1" as="geometry">
            <mxPoint x="645" y="-720" as="targetPoint" />
          </mxGeometry>
        </mxCell>
        <mxCell id="Iw-3hsuqcNe2yLvdcIk--54" style="edgeStyle=orthogonalEdgeStyle;rounded=0;orthogonalLoop=1;jettySize=auto;html=1;exitX=1;exitY=0.5;exitDx=0;exitDy=0;" parent="1" source="Iw-3hsuqcNe2yLvdcIk--48" edge="1">
          <mxGeometry relative="1" as="geometry">
            <mxPoint x="965" y="-710" as="targetPoint" />
          </mxGeometry>
        </mxCell>
        <mxCell id="Iw-3hsuqcNe2yLvdcIk--48" value="If Logged In ?" style="shape=hexagon;perimeter=hexagonPerimeter2;whiteSpace=wrap;html=1;fixedSize=1;" parent="1" vertex="1">
          <mxGeometry x="745" y="-790" width="120" height="40" as="geometry" />
        </mxCell>
        <mxCell id="Iw-3hsuqcNe2yLvdcIk--50" style="edgeStyle=orthogonalEdgeStyle;rounded=0;orthogonalLoop=1;jettySize=auto;html=1;exitX=0.5;exitY=1;exitDx=0;exitDy=0;" parent="1" source="Iw-3hsuqcNe2yLvdcIk--49" edge="1">
          <mxGeometry relative="1" as="geometry">
            <mxPoint x="804.5714285714284" y="-860" as="targetPoint" />
          </mxGeometry>
        </mxCell>
        <mxCell id="Iw-3hsuqcNe2yLvdcIk--76" style="edgeStyle=orthogonalEdgeStyle;rounded=0;orthogonalLoop=1;jettySize=auto;html=1;exitX=1;exitY=0.5;exitDx=0;exitDy=0;entryX=1;entryY=0.5;entryDx=0;entryDy=0;" parent="1" source="Iw-3hsuqcNe2yLvdcIk--49" target="Iw-3hsuqcNe2yLvdcIk--74" edge="1">
          <mxGeometry relative="1" as="geometry">
            <Array as="points">
              <mxPoint x="1065" y="-930" />
              <mxPoint x="1065" y="-175" />
            </Array>
          </mxGeometry>
        </mxCell>
        <mxCell id="Iw-3hsuqcNe2yLvdcIk--49" value="User /admin clicks &quot;Add Yours&quot;" style="rounded=1;whiteSpace=wrap;html=1;" parent="1" vertex="1">
          <mxGeometry x="745" y="-960" width="120" height="60" as="geometry" />
        </mxCell>
        <mxCell id="Iw-3hsuqcNe2yLvdcIk--52" style="edgeStyle=orthogonalEdgeStyle;rounded=0;orthogonalLoop=1;jettySize=auto;html=1;exitX=0.5;exitY=1;exitDx=0;exitDy=0;entryX=0.5;entryY=0;entryDx=0;entryDy=0;" parent="1" source="Iw-3hsuqcNe2yLvdcIk--51" target="Iw-3hsuqcNe2yLvdcIk--48" edge="1">
          <mxGeometry relative="1" as="geometry" />
        </mxCell>
        <mxCell id="Iw-3hsuqcNe2yLvdcIk--51" value="Enter Game Name" style="rounded=1;whiteSpace=wrap;html=1;" parent="1" vertex="1">
          <mxGeometry x="745" y="-860" width="120" height="40" as="geometry" />
        </mxCell>
        <mxCell id="Iw-3hsuqcNe2yLvdcIk--58" style="edgeStyle=orthogonalEdgeStyle;rounded=0;orthogonalLoop=1;jettySize=auto;html=1;exitX=0.5;exitY=1;exitDx=0;exitDy=0;entryX=0;entryY=0.5;entryDx=0;entryDy=0;" parent="1" source="Iw-3hsuqcNe2yLvdcIk--55" target="Iw-3hsuqcNe2yLvdcIk--66" edge="1">
          <mxGeometry relative="1" as="geometry">
            <mxPoint x="645" y="-390" as="targetPoint" />
            <Array as="points">
              <mxPoint x="645" y="-365" />
            </Array>
          </mxGeometry>
        </mxCell>
        <mxCell id="Iw-3hsuqcNe2yLvdcIk--60" style="edgeStyle=orthogonalEdgeStyle;rounded=0;orthogonalLoop=1;jettySize=auto;html=1;exitX=1;exitY=0.5;exitDx=0;exitDy=0;" parent="1" source="Iw-3hsuqcNe2yLvdcIk--55" edge="1">
          <mxGeometry relative="1" as="geometry">
            <mxPoint x="765" y="-560" as="targetPoint" />
          </mxGeometry>
        </mxCell>
        <mxCell id="Iw-3hsuqcNe2yLvdcIk--55" value="If Game Details Found?" style="shape=hexagon;perimeter=hexagonPerimeter2;whiteSpace=wrap;html=1;fixedSize=1;" parent="1" vertex="1">
          <mxGeometry x="585" y="-630" width="120" height="40" as="geometry" />
        </mxCell>
        <mxCell id="Iw-3hsuqcNe2yLvdcIk--57" style="edgeStyle=orthogonalEdgeStyle;rounded=0;orthogonalLoop=1;jettySize=auto;html=1;exitX=0.5;exitY=1;exitDx=0;exitDy=0;entryX=0.5;entryY=0;entryDx=0;entryDy=0;" parent="1" source="Iw-3hsuqcNe2yLvdcIk--56" target="Iw-3hsuqcNe2yLvdcIk--55" edge="1">
          <mxGeometry relative="1" as="geometry" />
        </mxCell>
        <mxCell id="Iw-3hsuqcNe2yLvdcIk--56" value="Fetch Game Detals From ragw api" style="rounded=1;whiteSpace=wrap;html=1;" parent="1" vertex="1">
          <mxGeometry x="595" y="-720" width="120" height="60" as="geometry" />
        </mxCell>
        <mxCell id="Iw-3hsuqcNe2yLvdcIk--59" value="yes" style="text;html=1;align=center;verticalAlign=middle;resizable=0;points=[];autosize=1;strokeColor=none;fillColor=none;" parent="1" vertex="1">
          <mxGeometry x="595" y="-590" width="40" height="30" as="geometry" />
        </mxCell>
        <mxCell id="Iw-3hsuqcNe2yLvdcIk--67" style="edgeStyle=orthogonalEdgeStyle;rounded=0;orthogonalLoop=1;jettySize=auto;html=1;exitX=0.5;exitY=1;exitDx=0;exitDy=0;entryX=1;entryY=0.5;entryDx=0;entryDy=0;" parent="1" source="Iw-3hsuqcNe2yLvdcIk--62" target="Iw-3hsuqcNe2yLvdcIk--66" edge="1">
          <mxGeometry relative="1" as="geometry" />
        </mxCell>
        <mxCell id="Iw-3hsuqcNe2yLvdcIk--62" value="Enable Manual Submission" style="rounded=1;whiteSpace=wrap;html=1;" parent="1" vertex="1">
          <mxGeometry x="705" y="-460" width="120" height="60" as="geometry" />
        </mxCell>
        <mxCell id="Iw-3hsuqcNe2yLvdcIk--64" style="edgeStyle=orthogonalEdgeStyle;rounded=0;orthogonalLoop=1;jettySize=auto;html=1;exitX=0.5;exitY=1;exitDx=0;exitDy=0;entryX=0.5;entryY=0;entryDx=0;entryDy=0;" parent="1" source="Iw-3hsuqcNe2yLvdcIk--63" target="Iw-3hsuqcNe2yLvdcIk--62" edge="1">
          <mxGeometry relative="1" as="geometry" />
        </mxCell>
        <mxCell id="Iw-3hsuqcNe2yLvdcIk--63" value="Show toast &quot;Game Not Found.Manual Submission Enabled&quot;" style="rounded=1;whiteSpace=wrap;html=1;" parent="1" vertex="1">
          <mxGeometry x="705" y="-560" width="120" height="60" as="geometry" />
        </mxCell>
        <mxCell id="Iw-3hsuqcNe2yLvdcIk--72" style="edgeStyle=orthogonalEdgeStyle;rounded=0;orthogonalLoop=1;jettySize=auto;html=1;exitX=0.5;exitY=1;exitDx=0;exitDy=0;entryX=0;entryY=0.5;entryDx=0;entryDy=0;" parent="1" source="Iw-3hsuqcNe2yLvdcIk--65" target="Iw-3hsuqcNe2yLvdcIk--71" edge="1">
          <mxGeometry relative="1" as="geometry" />
        </mxCell>
        <mxCell id="Iw-3hsuqcNe2yLvdcIk--65" value="Game &quot;${normalizedGame.name}&quot; submitted for admin approval!`" style="rounded=1;whiteSpace=wrap;html=1;" parent="1" vertex="1">
          <mxGeometry x="600" y="-320" width="170" height="60" as="geometry" />
        </mxCell>
        <mxCell id="Iw-3hsuqcNe2yLvdcIk--66" value="" style="rhombus;whiteSpace=wrap;html=1;" parent="1" vertex="1">
          <mxGeometry x="670" y="-380" width="30" height="30" as="geometry" />
        </mxCell>
        <mxCell id="Iw-3hsuqcNe2yLvdcIk--68" style="edgeStyle=orthogonalEdgeStyle;rounded=0;orthogonalLoop=1;jettySize=auto;html=1;exitX=0.5;exitY=1;exitDx=0;exitDy=0;entryX=0.53;entryY=0.036;entryDx=0;entryDy=0;entryPerimeter=0;" parent="1" source="Iw-3hsuqcNe2yLvdcIk--66" target="Iw-3hsuqcNe2yLvdcIk--65" edge="1">
          <mxGeometry relative="1" as="geometry" />
        </mxCell>
        <mxCell id="Iw-3hsuqcNe2yLvdcIk--73" style="edgeStyle=orthogonalEdgeStyle;rounded=0;orthogonalLoop=1;jettySize=auto;html=1;exitX=0.5;exitY=1;exitDx=0;exitDy=0;entryX=1;entryY=0.5;entryDx=0;entryDy=0;" parent="1" source="Iw-3hsuqcNe2yLvdcIk--69" target="Iw-3hsuqcNe2yLvdcIk--71" edge="1">
          <mxGeometry relative="1" as="geometry" />
        </mxCell>
        <mxCell id="Iw-3hsuqcNe2yLvdcIk--69" value="show toast &quot;Please Login To Add Game&quot;" style="rounded=1;whiteSpace=wrap;html=1;" parent="1" vertex="1">
          <mxGeometry x="915" y="-710" width="120" height="60" as="geometry" />
        </mxCell>
        <mxCell id="Iw-3hsuqcNe2yLvdcIk--70" value="" style="edgeStyle=none;orthogonalLoop=1;jettySize=auto;html=1;rounded=0;entryX=0.5;entryY=0;entryDx=0;entryDy=0;" parent="1" source="Iw-3hsuqcNe2yLvdcIk--4" target="Iw-3hsuqcNe2yLvdcIk--49" edge="1">
          <mxGeometry width="100" relative="1" as="geometry">
            <mxPoint x="755" y="-970" as="sourcePoint" />
            <mxPoint x="855" y="-970" as="targetPoint" />
            <Array as="points" />
          </mxGeometry>
        </mxCell>
        <mxCell id="Iw-3hsuqcNe2yLvdcIk--75" style="edgeStyle=orthogonalEdgeStyle;rounded=0;orthogonalLoop=1;jettySize=auto;html=1;exitX=0.5;exitY=1;exitDx=0;exitDy=0;entryX=0.5;entryY=0;entryDx=0;entryDy=0;" parent="1" source="Iw-3hsuqcNe2yLvdcIk--71" target="Iw-3hsuqcNe2yLvdcIk--74" edge="1">
          <mxGeometry relative="1" as="geometry" />
        </mxCell>
        <mxCell id="Iw-3hsuqcNe2yLvdcIk--71" value="" style="rhombus;whiteSpace=wrap;html=1;" parent="1" vertex="1">
          <mxGeometry x="785" y="-240" width="30" height="30" as="geometry" />
        </mxCell>
        <mxCell id="Iw-3hsuqcNe2yLvdcIk--80" style="edgeStyle=orthogonalEdgeStyle;rounded=0;orthogonalLoop=1;jettySize=auto;html=1;exitX=0.5;exitY=1;exitDx=0;exitDy=0;" parent="1" source="Iw-3hsuqcNe2yLvdcIk--74" edge="1">
          <mxGeometry relative="1" as="geometry">
            <mxPoint x="800.2857142857147" y="-40" as="targetPoint" />
          </mxGeometry>
        </mxCell>
        <mxCell id="Iw-3hsuqcNe2yLvdcIk--74" value="" style="rhombus;whiteSpace=wrap;html=1;" parent="1" vertex="1">
          <mxGeometry x="785" y="-190" width="30" height="30" as="geometry" />
        </mxCell>
        <mxCell id="Iw-3hsuqcNe2yLvdcIk--77" value="" style="line;strokeWidth=4;html=1;perimeter=backbonePerimeter;points=[];outlineConnect=0;" parent="1" vertex="1">
          <mxGeometry x="-360" y="-30" width="1470" height="10" as="geometry" />
        </mxCell>
        <mxCell id="Iw-3hsuqcNe2yLvdcIk--81" value="" style="html=1;shape=mxgraph.sysml.actFinal;strokeWidth=2;verticalLabelPosition=bottom;verticalAlignment=top;" parent="1" vertex="1">
          <mxGeometry x="380" y="30" width="40" height="40" as="geometry" />
        </mxCell>
        <mxCell id="Iw-3hsuqcNe2yLvdcIk--82" value="" style="edgeStyle=none;orthogonalLoop=1;jettySize=auto;html=1;rounded=0;entryX=0.5;entryY=0;entryDx=0;entryDy=0;entryPerimeter=0;" parent="1" source="Iw-3hsuqcNe2yLvdcIk--77" target="Iw-3hsuqcNe2yLvdcIk--81" edge="1">
          <mxGeometry width="100" relative="1" as="geometry">
            <mxPoint x="365" as="sourcePoint" />
            <mxPoint x="465" as="targetPoint" />
            <Array as="points" />
          </mxGeometry>
        </mxCell>
      </root>
    </mxGraphModel>
  </diagram>
</mxfile>
